<svg id="Component_14_1" data-name="Component 14 – 1" xmlns="http://www.w3.org/2000/svg" width="136.365" height="44" viewBox="0 0 136.365 44">
  <g id="Component_13_1" data-name="Component 13 – 1" transform="translate(63.409)">
    <g id="Path_4" data-name="Path 4" fill="#fff">
      <path d="M 59.10373687744141 43.95000076293945 L 13.85243797302246 43.95000076293945 C 10.166428565979 43.95000076293945 6.700818538665771 42.39543914794922 4.094018459320068 39.57268142700195 C 1.486188411712646 36.74882125854492 0.04999838024377823 32.9940299987793 0.04999838024377823 29 L 0.04999838024377823 15 C 0.04999838024377823 11.0059700012207 1.486188411712646 7.251180171966553 4.094018459320068 4.427320003509521 C 6.698909282684326 1.606627464294434 10.16126537322998 0.05227874219417572 13.84425258636475 0.05000337585806847 L 53.50998687744141 13.40097999572754 L 53.55412673950195 13.4158296585083 L 53.57207870483398 13.37285995483398 L 59.13702392578125 0.05004265904426575 C 62.81069183349609 0.05931080877780914 66.26315307617188 1.613002061843872 68.86215972900391 4.427320003509521 C 71.46998596191406 7.251180171966553 72.90618133544922 11.0059700012207 72.90618133544922 15 L 72.90618133544922 29 C 72.90618133544922 32.9940299987793 71.46998596191406 36.74882125854492 68.86215972900391 39.57268142700195 C 66.25535583496094 42.39543914794922 62.78974914550781 43.95000076293945 59.10373687744141 43.95000076293945 Z" stroke="none"/>
      <path d="M 13.83608245849609 0.1000099182128906 C 10.17021179199219 0.1045417785644531 6.724174499511719 1.652969360351562 4.130744934082031 4.461238861083984 C 1.531478881835938 7.275840759277344 0.09999847412109375 11.01858139038086 0.09999847412109375 15 L 0.09999847412109375 29 C 0.09999847412109375 32.98141860961914 1.531478881835938 36.72415924072266 4.130744934082031 39.53876113891602 C 6.727981567382812 42.35115051269531 10.18054962158203 43.90000152587891 13.85243988037109 43.90000152587891 L 59.10373687744141 43.90000152587891 C 62.77562713623047 43.90000152587891 66.22819519042969 42.35115051269531 68.82543182373047 39.53876113891602 C 71.42469787597656 36.72415924072266 72.85617828369141 32.98141860961914 72.85617828369141 29 L 72.85617828369141 15 C 72.85617828369141 11.01858139038086 71.42469787597656 7.275840759277344 68.82543182373047 4.461238861083984 C 66.24388885498047 1.665843963623047 62.81731033325195 0.1187629699707031 59.17026519775391 0.1001701354980469 L 53.58230590820312 13.47808074951172 L 13.83608245849609 0.1000099182128906 M 13.85243988037109 0 L 53.52593994140625 13.35359001159668 L 59.10373687744141 0 C 66.75422668457031 0 72.9561767578125 6.715728759765625 72.9561767578125 15 L 72.9561767578125 29 C 72.9561767578125 37.28427124023438 66.75422668457031 44 59.10373687744141 44 L 13.85243988037109 44 C 6.201950073242188 44 0 37.28427124023438 0 29 L 0 15 C 0 6.715728759765625 6.201950073242188 0 13.85243988037109 0 Z" stroke="none" fill="#707070"/>
    </g>
  </g>
  <g id="Component_12_1" data-name="Component 12 – 1">
    <g id="Path_3" data-name="Path 3" fill="#007af3">
      <path d="M 14.56668567657471 43.94999694824219 C 10.69014930725098 43.94829177856445 7.045610904693604 42.39355850219727 4.304162502288818 39.57175445556641 C 1.560828924179077 36.74801254272461 0.05000673979520798 32.99355697631836 0.05000673979520798 29 L 0.05000673979520798 15 C 0.05000673979520798 11.00644397735596 1.560828924179077 7.251988887786865 4.304162502288818 4.428244590759277 C 7.047117710113525 1.604888916015625 10.69396209716797 0.05000000074505806 14.57288455963135 0.05000000074505806 L 73.83592987060547 0.05000000074505806 C 77.71485900878906 0.05000000074505806 81.3616943359375 1.604888916015625 84.10466003417969 4.428244590759277 C 86.84799194335938 7.251977920532227 88.35881805419922 11.00644397735596 88.35881805419922 15 L 88.35881805419922 29 C 88.35881805419922 30.76326751708984 88.09564971923828 32.36027908325195 87.57662963867188 33.74666595458984 C 87.0775146484375 35.0798454284668 86.32517242431641 36.26222229003906 85.34048461914062 37.26094436645508 C 83.49100494384766 39.13678741455078 80.82262420654297 40.42671966552734 77.18377685546875 41.20374298095703 L 73.88419342041016 28.98696708679199 L 73.87136077880859 28.93945503234863 L 73.82366180419922 28.95153427124023 L 14.56668567657471 43.94999694824219 Z" stroke="none"/>
      <path d="M 14.57288360595703 0.09999847412109375 C 10.70758819580078 0.09999847412109375 7.073486328125 1.649509429931641 4.340019226074219 4.463077545166016 C 1.605796813964844 7.277442932128906 0.09999847412109375 11.01952362060547 0.09999847412109375 15 L 0.09999847412109375 29 C 0.09999847412109375 32.98047637939453 1.605796813964844 36.72255706787109 4.340019226074219 39.53692245483398 C 7.070480346679688 42.34739685058594 10.69989776611328 43.8965950012207 14.56044769287109 43.89999389648438 L 73.90680694580078 28.87891006469727 L 77.21968078613281 41.14490509033203 C 80.8248291015625 40.36896133422852 83.47036743164062 39.08650207519531 85.30487060546875 37.22584533691406 C 86.28459930419922 36.23215484619141 87.03316497802734 35.05568695068359 87.52978515625 33.72913360595703 C 88.04670715332031 32.34836578369141 88.30880737304688 30.75725555419922 88.30880737304688 29 L 88.30880737304688 15 C 88.30880737304688 11.01952362060547 86.80300903320312 7.277442932128906 84.06878662109375 4.463077545166016 C 81.3353271484375 1.649509429931641 77.70123291015625 0.09999847412109375 73.83592987060547 0.09999847412109375 L 14.57288360595703 0.09999847412109375 M 14.57288360595703 0 L 73.83592987060547 0 C 81.88431549072266 0 88.40880584716797 6.715732574462891 88.40880584716797 15 L 88.40880584716797 29 C 88.40880584716797 36.24045562744141 84.0751953125 39.79484558105469 77.14785003662109 41.26250076293945 L 73.83592987060547 29 L 14.57288360595703 44 C 6.524497985839844 44 -7.62939453125e-06 37.28426742553711 -7.62939453125e-06 29 L -7.62939453125e-06 15 C -7.62939453125e-06 6.715732574462891 6.524497985839844 0 14.57288360595703 0 Z M 77.14785003662109 41.26250076293945 C 78.16194915771484 41.26250076293945 76.49021911621094 41.40549087524414 77.14785003662109 41.26250076293945 Z" stroke="none" fill="#707070"/>
    </g>
    <text id="SASTA" transform="translate(4.409 28)" fill="#fff" font-size="17" font-family="Poppins-Bold, Poppins" font-weight="700"><tspan x="0" y="0">SASTA</tspan></text>
    <text id="BAZAAR" transform="translate(64.409 28)" font-size="17" font-family="Poppins-Bold, Poppins" font-weight="700"><tspan x="0" y="0">BAZAAR</tspan></text>
  </g>
</svg>
