<svg id="Component_12_1" data-name="Component 12 – 1" xmlns="http://www.w3.org/2000/svg" width="102.938" height="28.144" viewBox="0 0 102.938 28.144">
  <path id="Path_3" data-name="Path 3" d="M11.952,0,60.559,2.353c6.6,0,11.952,1.951,11.952,7.26v8.973c0,4.64-3.554,4.73-9.236,5.67-.539.092.832,0,0,0l-2.716-5.67-48.607,5.67C5.351,24.256,0,23.9,0,18.586V9.613C0,4.3,5.351,0,11.952,0Z" transform="translate(0 1.965)" fill="#007af3"/>
  <g id="Path_4" data-name="Path 4" transform="matrix(0.999, 0.035, -0.035, 0.999, 46.867, 0)" fill="#fff">
    <path d="M 45.45242691040039 26.15179824829102 L 10.652907371521 26.15179824829102 C 4.806447505950928 26.15179824829102 0.04999761655926704 22.16715812683105 0.04999761655926704 17.26936912536621 L 0.04999761655926704 8.932428359985352 C 0.04999761655926704 7.794528961181641 0.649397611618042 6.782018661499023 1.83153760433197 5.923008918762207 C 2.863507509231567 5.173118591308594 4.340377807617188 4.536568641662598 6.221107482910156 4.031038761138916 C 10.52618217468262 2.873847007751465 15.42242527008057 2.783131837844849 16.82577323913574 2.782999515533447 L 41.31962585449219 5.815578937530518 L 41.34912872314453 5.819228649139404 L 41.36642837524414 5.795058727264404 L 45.47811126708984 0.05002444237470627 C 51.31280899047852 0.06167451292276382 56.05533599853516 4.041813373565674 56.05533599853516 8.932428359985352 L 56.05533599853516 17.26936912536621 C 56.05533599853516 22.16715812683105 51.29888916015625 26.15179824829102 45.45242691040039 26.15179824829102 Z" stroke="none"/>
    <path d="M 45.50374603271484 0.1001014709472656 L 41.37248992919922 5.872509002685547 L 16.82270050048828 2.833000183105469 C 15.41682434082031 2.83326530456543 10.53009414672852 2.924571990966797 6.234088897705078 4.079319000244141 C 4.359275817871094 4.583259582519531 2.887939453125 5.217178344726562 1.860927581787109 5.963459014892578 C 0.6924591064453125 6.812528610229492 0.09999847412109375 7.811428070068359 0.09999847412109375 8.932428359985352 L 0.09999847412109375 17.26936912536621 C 0.09999847412109375 22.13958930969238 4.834018707275391 26.10179901123047 10.65290832519531 26.10179901123047 L 45.45241546630859 26.10179901123047 C 51.27131652832031 26.10179901123047 56.00533676147461 22.13958930969238 56.00533676147461 17.26936912536621 L 56.00533676147461 8.932428359985352 C 56.00533676147461 4.07647705078125 51.29923248291016 0.1232242584228516 45.50374603271484 0.1001014709472656 M 45.45241546630859 -1.9073486328125e-06 C 51.33585739135742 -1.9073486328125e-06 56.10533905029297 3.999189376831055 56.10533905029297 8.932428359985352 L 56.10533905029297 17.26936912536621 C 56.10533905029297 22.20260810852051 51.33585739135742 26.2017993927002 45.45241546630859 26.2017993927002 L 10.65290832519531 26.2017993927002 C 4.769466400146484 26.2017993927002 -3.814697265625e-06 22.20260810852051 -3.814697265625e-06 17.26936912536621 L -3.814697265625e-06 8.932428359985352 C -3.814697265625e-06 3.999189376831055 10.94539642333984 2.732997894287109 16.82883834838867 2.732997894287109 L 41.32576751708984 5.765958786010742 L 45.45241546630859 -1.9073486328125e-06 Z" stroke="none" fill="#707070"/>
  </g>
  <text id="SASTA" transform="translate(1.511 20.672)" fill="#fff" font-size="13" font-family="Poppins-Bold, Poppins" font-weight="700"><tspan x="0" y="0">SASTA</tspan></text>
  <text id="BAZAAR" transform="translate(47.511 20.672)" font-size="13" font-family="Poppins-Bold, Poppins" font-weight="700"><tspan x="0" y="0">BAZAAR</tspan></text>
</svg>
